<svg width="11" height="11" viewBox="0 0 11 11" fill="none" xmlns="http://www.w3.org/2000/svg">
<g id="icons/sum">
<path id="Vector" d="M2.00019 1.94643C2.03045 1.87541 2.08092 1.81485 2.14533 1.77229C2.20974 1.72972 2.28523 1.70703 2.36244 1.70703H8.13744C8.24186 1.70703 8.34202 1.74852 8.41586 1.82236C8.4897 1.8962 8.53119 1.99635 8.53119 2.10078C8.53119 2.20521 8.4897 2.30536 8.41586 2.3792C8.34202 2.45305 8.24186 2.49453 8.13744 2.49453H3.28749L5.46414 4.75623C5.53142 4.82617 5.57052 4.91849 5.57391 5.01548C5.5773 5.11247 5.54475 5.20729 5.48251 5.28176L3.20454 8.00703H8.13744C8.24186 8.00703 8.34202 8.04852 8.41586 8.12236C8.4897 8.1962 8.53119 8.29635 8.53119 8.40078C8.53119 8.50521 8.4897 8.60536 8.41586 8.67921C8.34202 8.75305 8.24186 8.79453 8.13744 8.79453H2.36244C2.28757 8.79449 2.21426 8.7731 2.15112 8.73287C2.08797 8.69265 2.0376 8.63525 2.00592 8.56742C1.97423 8.49959 1.96255 8.42412 1.97222 8.34988C1.9819 8.27564 2.01254 8.2057 2.06056 8.14826L4.65144 5.04761L2.07894 2.37378C2.02533 2.31813 1.98927 2.24794 1.97527 2.17195C1.96127 2.09596 1.96993 2.01753 2.00019 1.94643Z" fill="#30495C"/>
</g>
</svg>
