<svg width="177" height="160" viewBox="0 0 177 160" fill="none" xmlns="http://www.w3.org/2000/svg">
<g id="empty-search">
<g id="Vector">
<path d="M29.4638 40.6229L0 75.793L29.4638 66.5553V40.6229Z" fill="#CCCCCC"/>
<path d="M160.962 24.2031L118.029 40.6239H29.4648L72.3917 24.2031H160.962Z" fill="#B3B3B3"/>
<path d="M98.5847 31.4531L98.5527 32.6457L98.5424 33.1328L98.3488 40.6239H91.5539C89.8743 41.2305 87.934 41.4189 85.7003 41.0842C84.9053 40.9637 84.1617 40.8124 83.4666 40.6239H75.0909L75.2886 32.9083C75.2886 32.9083 75.2835 32.9083 75.2886 32.9032L75.3463 30.7014L83.1247 30.9526L84.1556 30.9897H84.1607L86.7714 31.0731L98.5836 31.4552L98.5847 31.4531Z" fill="#CCCCCC"/>
<path d="M98.5847 31.4531L98.5579 32.6354C98.5579 32.6354 98.5579 32.6406 98.5527 32.6457C98.355 33.1946 97.4395 35.5282 95.6445 37.867C95.6445 37.8721 95.6393 37.8773 95.6393 37.8773C94.9071 38.835 94.0276 39.7918 92.9864 40.6239H91.5539C89.8743 41.2305 87.934 41.4189 85.7003 41.0842C84.9053 40.9637 84.1617 40.8124 83.4666 40.6239H77.0476C76.4194 40.2686 75.7819 39.8649 75.1228 39.421L75.2896 32.9083C75.2896 32.9083 75.2845 32.9083 75.2896 32.9032L75.3473 30.7014L83.1257 30.9526L84.1566 30.9897H84.1617L86.7724 31.0731L98.5847 31.4552V31.4531Z" fill="black"/>
<path d="M100.621 21.4101C100.616 21.8447 100.599 22.2783 100.584 22.7119C100.562 23.2093 100.531 23.7057 100.495 24.2031C100.337 26.2071 100.035 28.1577 99.5692 29.9784C99.287 31.0814 98.9461 32.139 98.5435 33.1328C97.8009 34.9577 96.8432 36.5694 95.6455 37.867C95.6455 37.8721 95.6403 37.8773 95.6403 37.8773C94.4993 39.1121 93.145 40.0534 91.555 40.6239C89.8753 41.2305 87.9351 41.4189 85.7013 41.0842C84.9063 40.9637 84.1628 40.8124 83.4676 40.6239C78.9219 39.3901 76.4214 36.6744 75.2907 32.9083C75.2907 32.9083 75.2855 32.9083 75.2907 32.9032C74.7098 30.9835 74.4905 28.791 74.5379 26.3853C74.543 25.6788 74.5801 24.9518 74.6429 24.2041C74.7582 22.6346 74.9673 20.992 75.2495 19.2814C75.3278 18.8057 75.4112 18.3288 75.5008 17.8428C76.6408 11.5916 80.0671 9.23741 83.447 8.51034C83.8075 8.42692 84.1741 8.36925 84.5356 8.32703C84.5356 8.32703 84.539 8.32531 84.5459 8.32188C84.6499 8.31158 84.7549 8.30128 84.8548 8.29098H84.86C85.3203 8.24361 85.7755 8.22301 86.2152 8.22301C86.9372 8.21786 87.622 8.27039 88.245 8.34351C88.5169 8.37543 88.7734 8.41147 89.0133 8.44855C89.8815 8.58449 90.5673 8.75235 90.9752 8.85122C90.9752 8.85122 91.0225 8.86152 91.1162 8.87799C91.4509 8.95111 92.3613 9.17047 93.4911 9.67818C94.2284 10.0077 95.0657 10.4578 95.8927 11.0643C96.076 11.2003 96.2541 11.3414 96.4313 11.4876C98.6547 13.329 100.695 16.3897 100.622 21.4112L100.621 21.4101Z" fill="#CCCCCC"/>
<path d="M100.083 22.992C100.083 22.992 104.134 20.3957 105.185 24.2391C106.238 28.0825 100.257 32.9536 99.1058 29.0938L100.082 22.9909L100.083 22.992Z" fill="#CCCCCC"/>
<path d="M75.6676 19.6913C75.6676 19.6913 72.4514 16.1116 70.4175 19.5389C68.3815 22.9621 72.8561 29.2472 74.992 25.8323L75.6676 19.6903V19.6913Z" fill="#CCCCCC"/>
<path d="M92.4025 23.1794C92.2769 24.1052 92.5436 24.9095 92.9967 24.9703C93.4519 25.0311 93.9215 24.3287 94.0472 23.4018C94.1718 22.4729 93.9051 21.6707 93.4519 21.6079C92.9978 21.5492 92.5282 22.2505 92.4025 23.1794Z" fill="black"/>
<path d="M80.8281 21.614C80.7025 22.5409 80.9682 23.3452 81.4223 23.4039C81.8744 23.4667 82.3441 22.7633 82.4707 21.8365C82.5974 20.9086 82.3296 20.1064 81.8765 20.0446C81.4224 19.9838 80.9527 20.6862 80.8281 21.6151V21.614Z" fill="black"/>
<path d="M100.769 27.0053C100.942 27.0413 101.116 26.9404 101.17 26.7694C101.484 25.7437 101.917 25.1093 102.432 24.9353C102.923 24.7684 103.363 25.0692 103.366 25.0712C103.522 25.1814 103.736 25.1474 103.844 24.994C103.955 24.8395 103.92 24.6253 103.767 24.5151C103.736 24.4935 103.039 24.0043 102.21 24.2875C101.469 24.5388 100.898 25.306 100.511 26.5696C100.459 26.7519 100.56 26.9435 100.74 26.9981C100.748 27.0011 100.759 27.0032 100.768 27.0053H100.769Z" fill="black"/>
<path d="M73.5461 23.3226C73.5739 23.3298 73.6007 23.3308 73.6285 23.3277C73.818 23.3246 73.9673 23.166 73.9612 22.9786C73.9251 21.6573 73.5791 20.7655 72.9303 20.3267C72.2053 19.8386 71.4051 20.1228 71.3711 20.1331C71.194 20.2011 71.1033 20.3957 71.1693 20.5749C71.2352 20.7521 71.4288 20.8417 71.6059 20.7778C71.6327 20.7716 72.1249 20.6058 72.5534 20.8993C72.9982 21.2042 73.2475 21.9292 73.2773 22.9971C73.2825 23.1588 73.3958 23.2906 73.5461 23.3236V23.3226Z" fill="black"/>
<path d="M86.621 27.7509C86.7868 27.7879 86.9557 27.6942 87.0154 27.5295C87.0772 27.3513 86.9845 27.1556 86.8064 27.0928C86.4439 26.9641 85.4398 26.4708 85.5685 25.9198C85.5829 25.8529 85.6148 25.8148 85.6766 25.7808C86.0309 25.5934 86.9794 25.8076 87.5386 26.0238C87.7167 26.0908 87.9124 26.0012 87.9794 25.824C88.0473 25.6479 87.9608 25.4492 87.7827 25.3812C87.6148 25.3174 86.1236 24.7685 85.3563 25.1752C85.1185 25.3019 84.9619 25.5048 84.9012 25.7633C84.6653 26.7705 85.8435 27.478 86.5788 27.7395C86.5911 27.7447 86.6045 27.7478 86.621 27.7509Z" fill="black"/>
<path d="M100.578 22.7283C100.578 22.7283 106.785 11.12 100.027 8.23022C100.027 8.23022 100.917 0.518771 92.696 2.82768C92.696 2.82768 84.3317 -3.9322 80.443 3.45176C80.443 3.45176 71.6553 4.28181 75.2536 19.2928C75.2536 19.2928 76.1455 21.9364 77.3741 18.0951C78.6027 14.2558 78.8302 12.2085 84.0639 12.8645C89.2986 13.5226 89.6189 14.5277 93.4777 13.7316C97.3375 12.9345 98.2469 16.7099 98.3344 17.9375C98.4219 19.1671 99.3364 24.7901 100.58 22.7283H100.578Z" fill="#CCCCCC"/>
<path d="M97.7062 8.91198C97.528 8.83886 97.3293 8.92228 97.2562 9.09529C97.251 9.11074 96.7752 10.225 95.8906 11.0623C95.4828 11.4444 94.9905 11.7636 94.421 11.8944C93.7722 12.0406 93.0925 11.9315 92.3809 11.5648C92.9144 11.3239 93.3119 10.9995 93.489 10.6184C93.5776 10.43 93.6775 10.0798 93.489 9.67612C93.3428 9.36202 93.0081 9.01187 92.3438 8.68747C90.0627 7.56804 88.7188 7.29101 88.3316 7.86566C88.2481 7.98615 88.2008 8.13754 88.243 8.34144C88.3264 8.82753 88.9021 9.63287 90.6858 11.2085C90.7167 11.2394 90.7486 11.2662 90.7795 11.2919C89.7126 11.4227 88.3676 11.3022 87.0237 10.7163C87.1751 10.4341 87.2224 10.156 87.207 9.8893C87.1648 9.2508 86.7363 8.64422 86.2132 8.22095C85.7271 7.81829 85.1617 7.57215 84.759 7.5979C84.0423 7.64527 83.5346 7.97482 83.4511 8.46606C83.446 8.48151 83.446 8.4918 83.446 8.50828C83.3471 9.2405 84.1525 10.0458 85.8527 10.914C85.1463 11.327 83.9063 11.6102 82.2225 11.7193C79.2721 11.9078 77.5409 12.604 77.0805 13.7811C76.5831 15.0632 77.7922 16.3443 77.8447 16.402C77.8601 16.4175 77.8766 16.4278 77.8921 16.4442C77.9281 16.47 77.9755 16.4916 78.0177 16.4968C78.1279 16.5235 78.2422 16.4916 78.3267 16.4082C78.4677 16.2826 78.4729 16.0632 78.337 15.9273C78.337 15.9221 78.2587 15.8387 78.1536 15.6976C77.8921 15.3475 77.4791 14.6513 77.7252 14.0282C77.9662 13.4052 78.9549 12.6153 82.2709 12.4011C84.6035 12.2548 85.8908 11.7997 86.5602 11.2559C86.6128 11.2816 86.6591 11.3033 86.7116 11.3239C88.3491 12.0561 90.1595 12.1611 91.5138 11.847C92.5652 12.5483 93.5899 12.7883 94.5786 12.5586C94.7928 12.5061 95.0029 12.4382 95.1955 12.3444C95.4673 12.2291 95.7186 12.0777 95.9493 11.8995C96.1223 11.7739 96.2789 11.6328 96.4302 11.4866C97.3715 10.571 97.8586 9.43616 97.8895 9.36305C97.9626 9.18488 97.8792 8.98613 97.7062 8.91301V8.91198ZM86.3965 10.4186C84.032 9.26212 84.1154 8.6195 84.1216 8.59376C84.1422 8.47841 84.3049 8.3744 84.5345 8.32703C84.5345 8.32703 84.538 8.32531 84.5448 8.32188C84.6231 8.30128 84.7117 8.29098 84.8013 8.28584C84.8167 8.28584 84.8332 8.28583 84.8538 8.29098H84.8589C84.8909 8.29098 84.9218 8.29613 84.9527 8.30128C85.4964 8.41662 86.4748 9.18077 86.5221 9.93358C86.5324 10.1066 86.4912 10.2683 86.3965 10.4197V10.4186ZM91.141 10.6957C89.6817 9.41351 89.1791 8.75441 89.0113 8.44649C88.9587 8.35792 88.9392 8.2951 88.9278 8.25803C89.0164 8.24258 89.1894 8.25288 89.451 8.3054C89.8228 8.38367 90.3717 8.55668 91.1142 8.87593C91.3912 8.99127 91.7002 9.13236 92.04 9.2992C92.4375 9.49796 93.075 9.89033 92.867 10.3249C92.7259 10.6287 92.2862 10.9212 91.6528 11.1097C91.4798 10.984 91.3078 10.8481 91.1399 10.6967L91.141 10.6957Z" fill="black"/>
<path d="M83.6525 17.8755C83.498 17.8621 83.3651 17.7457 83.3425 17.584C83.2714 17.1257 83.1375 16.825 82.982 16.7818C82.74 16.72 82.2529 17.1123 81.9934 17.4254C81.8739 17.5696 81.6577 17.5902 81.5114 17.4707C81.3672 17.3492 81.3456 17.135 81.4682 16.9877C81.6175 16.8065 82.4002 15.9116 83.1643 16.1216C83.6123 16.2463 83.9007 16.7025 84.0211 17.4821C84.05 17.6685 83.9202 17.8425 83.7338 17.8724C83.705 17.8765 83.6782 17.8775 83.6525 17.8765V17.8755Z" fill="black"/>
<path d="M94.9344 19.5736C94.8077 19.5633 94.6934 19.4851 94.6429 19.3604C94.4936 18.9876 94.1568 18.4665 93.9066 18.447L93.9004 18.4449C93.7398 18.4387 93.5194 18.6818 93.3103 19.0968C93.2248 19.2667 93.0199 19.3337 92.851 19.2492C92.6831 19.1637 92.6131 18.9588 92.6976 18.7899C93.0529 18.0855 93.4658 17.7384 93.9303 17.7601C94.7088 17.7766 95.1929 18.8888 95.2804 19.1061C95.3494 19.2832 95.2629 19.4809 95.0888 19.552C95.0374 19.5705 94.9859 19.5777 94.9344 19.5736Z" fill="black"/>
<path d="M97.0862 14.8717C97.1048 14.8748 97.1223 14.8768 97.1418 14.8789C97.3324 14.8861 97.493 14.7409 97.5013 14.5524C97.5857 12.6524 96.077 11.8254 95.2614 11.6503H95.2542C95.0677 11.6112 94.8865 11.7307 94.8494 11.9171C94.8093 12.1014 94.9277 12.2816 95.112 12.3218C95.1852 12.3372 96.8967 12.7306 96.8164 14.5215C96.8082 14.6904 96.9256 14.8377 97.0862 14.8717Z" fill="black"/>
<path d="M83.4329 30.0895C83.3495 30.0978 83.2702 30.1348 83.2084 30.1997C83.0673 30.3449 83.0714 30.5766 83.2166 30.7167C83.3 30.797 85.2918 32.6734 88.3782 31.4716C88.5656 31.3984 88.6604 31.1863 88.5873 30.9978C88.5141 30.8094 88.2999 30.7157 88.1125 30.7888C85.4576 31.8227 83.7439 30.2069 83.7264 30.1915C83.645 30.1132 83.5369 30.0792 83.4329 30.0905V30.0895Z" fill="black"/>
<path d="M106.432 40.6239H100.693C100.614 40.4931 100.52 40.3314 100.426 40.1584C100.066 39.5096 99.6413 38.6826 99.5682 38.5838C99.1655 38.0287 98.5641 36.1461 100.086 35.142C101.897 33.933 105.558 37.8093 105.558 37.8093L106.348 40.3623L106.431 40.6239H106.432Z" fill="#CCCCCC"/>
<path d="M63.3054 38.5838C63.2323 38.6826 62.808 39.5096 62.4475 40.1584C62.3487 40.3314 62.2591 40.4931 62.1808 40.6239H56.4363L56.5198 40.3623L57.3148 37.8093C57.3148 37.8093 60.9769 33.933 62.7863 35.142C64.3085 36.1461 63.7019 38.0297 63.3043 38.5838H63.3054Z" fill="#CCCCCC"/>
<path d="M160.957 24.2031V143.579L118.029 160L29.4596 156.338V40.6239H118.029L160.957 24.2031Z" fill="#E6E6E6"/>
<path d="M84.4655 111.988C83.9002 108.937 81.2061 106.521 76.682 105.004C74.5533 104.288 72.126 103.812 69.5256 103.586C73.1301 99.1765 73.5801 94.9604 70.7079 91.4393C68.7563 89.0439 66.1045 87.7463 62.8296 87.5836C52.7598 87.0656 38.5511 97.4546 29.4596 105.176V107.964C38.2164 100.385 52.9163 89.1737 62.7194 89.6701C65.4238 89.806 67.5061 90.8163 69.0859 92.7617C71.5287 95.7544 70.781 99.3423 66.8676 103.439C57.5352 103.225 46.7115 106.002 39.9949 112.149C38.7189 113.316 35.3236 116.418 37.0599 118.39C40.0052 121.738 57.5136 114.305 65.9572 107.154C66.5957 106.615 67.1869 106.075 67.7306 105.542C70.7594 105.688 73.5945 106.175 76.0167 106.986C79.7252 108.231 81.996 110.14 82.4038 112.369C82.8909 114.995 80.9126 118.222 76.6913 121.701C72.5637 125.102 68.6513 127.524 65.157 129.129C65.3661 126.216 64.466 123.506 62.5515 121.801C60.3075 119.802 57.1583 119.734 54.1346 121.623C50.2686 124.035 48.244 126.755 48.4427 129.287C48.5735 130.93 49.6353 132.253 51.4354 133.022C53.8628 134.053 57.5929 134.021 62.1643 132.541C62.1221 132.63 62.086 132.72 62.0438 132.808C60.532 136.01 53.9194 145.478 29.4586 143.527V145.619C31.6398 145.792 33.7376 145.876 35.752 145.876C41.6262 145.876 46.7682 145.159 51.1368 143.72C59.0305 141.12 62.4516 136.836 63.9377 133.703C64.2621 133.007 64.5237 132.306 64.7224 131.6C68.7296 129.942 73.2495 127.253 78.0198 123.319C82.9372 119.265 85.103 115.456 84.4645 111.988H84.4655ZM49.9247 114.264C43.3017 117.067 39.4306 117.449 38.6829 117.041C38.7251 116.8 39.0495 115.849 41.4079 113.693C47.2409 108.358 56.3642 105.721 64.6607 105.506C60.9254 108.676 55.595 111.857 49.9247 114.263V114.264ZM62.9346 130.061C58.2427 131.845 54.4858 132.044 52.2521 131.098C51.5147 130.778 50.6146 130.182 50.5312 129.12C50.4004 127.457 52.1635 125.317 55.2448 123.397C56.3797 122.686 57.4785 122.336 58.4878 122.336C59.497 122.336 60.3868 122.675 61.1613 123.365C62.5948 124.642 63.4629 127.158 62.9346 130.061Z" fill="white"/>
<path d="M29.4638 40.6229L17.3878 72.5325H105.777L118.029 40.6229H29.4638Z" fill="#F4F4F4"/>
<path d="M57.7813 38.5755C57.7813 38.5755 58.0944 32.3882 54.1975 33.3223C54.1975 33.3223 53.7268 33.5128 52.3221 34.3223C52.3221 34.3223 49.903 32.7209 46.9762 34.4623C46.9762 34.4623 42.7837 33.1452 41.3399 34.7857C41.3399 34.7857 37.374 33.106 35.8272 35.2872C34.2803 37.4664 34.7407 39.2964 34.7407 39.2964C34.7407 39.2964 35.5419 47.1201 37.6829 47.184C37.6829 47.184 39.8487 47.4445 40.1731 46.2478C40.1731 46.2478 41.8981 48.5403 43.6684 48.0974C45.4397 47.6546 45.7857 45.7051 45.7857 45.7051C45.7857 45.7051 46.5941 49.3683 48.7712 49.2715C50.9473 49.1757 51.3912 46.4703 51.4056 45.4775C51.4056 45.4775 52.0502 47.8194 53.6208 47.6598C55.1923 47.5001 56.32 44.7669 56.3179 44.6773C56.3158 44.5877 57.7823 38.5776 57.7823 38.5776L57.7813 38.5755Z" fill="#CCCCCC"/>
<path d="M51.5364 44.4271C51.7207 44.423 51.8803 44.2809 51.9019 44.0903C51.9328 43.8154 52.6414 37.3562 52.4848 36.0637C52.4612 35.8567 52.2758 35.7074 52.0647 35.7321C51.8577 35.7589 51.7083 35.9463 51.7341 36.1544C51.8515 37.1554 51.353 42.1614 51.146 44.0059C51.1244 44.2129 51.2758 44.4013 51.4828 44.4261C51.5003 44.4261 51.5188 44.4261 51.5364 44.4261V44.4271Z" fill="black"/>
<path d="M45.8413 44.8143C46.0288 44.8112 46.1915 44.665 46.2069 44.4714C46.2347 44.2077 46.8341 37.9988 46.797 36.5272C46.7919 36.3171 46.6178 36.1503 46.4077 36.1564C46.1977 36.1616 46.0308 36.3377 46.037 36.5478C46.0751 37.972 45.4603 44.3354 45.4541 44.3983C45.4335 44.6094 45.5859 44.7927 45.796 44.8133C45.8104 44.8133 45.8259 44.8153 45.8434 44.8153L45.8413 44.8143Z" fill="black"/>
<path d="M40.3482 45.3539C40.5377 45.3478 40.6983 45.2026 40.7138 45.0079L41.4449 36.59C41.4645 36.3809 41.31 36.1966 41.101 36.1791C40.894 36.1606 40.7086 36.313 40.6911 36.5241L39.9589 44.941C39.9414 45.15 40.0958 45.3333 40.3059 45.3519C40.3193 45.3519 40.3327 45.3529 40.3492 45.3529L40.3482 45.3539Z" fill="black"/>
<path d="M160.959 24.201V143.579L118.028 160V40.6249L160.959 24.201Z" fill="#CCCCCC"/>
<path d="M118.029 40.6229L129.686 74.8867L176.053 53.1519L161.564 24.201L118.029 40.6229Z" fill="#F4F4F4"/>
<path d="M105.092 38.5755C105.092 38.5755 104.779 32.3882 108.676 33.3223C108.676 33.3223 109.146 33.5128 110.551 34.3223C110.551 34.3223 112.971 32.7209 115.897 34.4623C115.897 34.4623 120.09 33.1452 121.534 34.7857C121.534 34.7857 125.5 33.106 127.046 35.2872C128.593 37.4664 128.133 39.2964 128.133 39.2964C128.133 39.2964 127.332 47.1201 125.191 47.184C125.191 47.184 123.025 47.4445 122.7 46.2478C122.7 46.2478 120.975 48.5403 119.205 48.0974C117.434 47.6546 117.088 45.7051 117.088 45.7051C117.088 45.7051 116.278 49.3683 114.102 49.2715C111.926 49.1757 111.482 46.4703 111.468 45.4775C111.468 45.4775 110.823 47.8194 109.253 47.6598C107.681 47.5001 106.554 44.7669 106.556 44.6773C106.558 44.5877 105.091 38.5776 105.091 38.5776L105.092 38.5755Z" fill="#CCCCCC"/>
<path d="M111.336 44.4271C111.152 44.423 110.992 44.2809 110.971 44.0903C110.94 43.8154 110.231 37.3562 110.388 36.0637C110.411 35.8567 110.598 35.7074 110.808 35.7321C111.015 35.7589 111.164 35.9463 111.138 36.1544C111.02 37.1554 111.519 42.1614 111.726 44.0059C111.748 44.2129 111.597 44.4013 111.39 44.4261C111.372 44.4261 111.354 44.4261 111.336 44.4261V44.4271Z" fill="black"/>
<path d="M117.032 44.8143C116.844 44.8112 116.683 44.665 116.667 44.4714C116.639 44.2077 116.039 37.9988 116.077 36.5272C116.082 36.3171 116.256 36.1503 116.466 36.1564C116.676 36.1616 116.843 36.3377 116.838 36.5478C116.799 37.972 117.414 44.3354 117.42 44.3983C117.44 44.6094 117.289 44.7927 117.079 44.8133C117.064 44.8133 117.048 44.8153 117.031 44.8153L117.032 44.8143Z" fill="black"/>
<path d="M122.524 45.3539C122.335 45.3478 122.174 45.2026 122.158 45.0079L121.427 36.59C121.407 36.3809 121.561 36.1966 121.771 36.1791C121.978 36.1606 122.163 36.313 122.18 36.5241L122.913 44.941C122.93 45.15 122.776 45.3333 122.566 45.3519C122.552 45.3519 122.539 45.3529 122.522 45.3529L122.524 45.3539Z" fill="black"/>
</g>
<path id="Vector_2" d="M84.4659 111.987C83.9005 108.937 81.2065 106.521 76.6824 105.004C74.5537 104.287 72.1264 103.811 69.526 103.586C73.1304 99.176 73.5805 94.9598 70.7083 91.4388C68.7567 89.0434 66.1049 87.7458 62.83 87.5831C52.7602 87.0651 38.5515 97.4541 29.46 105.176V107.964C38.2168 100.384 52.9167 89.1732 62.7198 89.6695C65.4241 89.8055 67.5065 90.8158 69.0863 92.7611C71.529 95.7538 70.7814 99.3418 66.868 103.439C57.5356 103.224 46.7119 106.002 39.9953 112.149C38.7193 113.316 35.3239 116.418 37.0602 118.39C40.0056 121.738 57.5139 114.304 65.9576 107.153C66.5961 106.615 67.1872 106.075 67.731 105.541C70.7598 105.688 73.5949 106.175 76.0171 106.985C79.7255 108.23 81.9963 110.14 82.4042 112.368C82.8913 114.994 80.913 118.222 76.6916 121.701C72.564 125.101 68.6517 127.523 65.1574 129.129C65.3665 126.216 64.4664 123.505 62.5519 121.801C60.3079 119.802 57.1586 119.734 54.135 121.622C50.269 124.034 48.2443 126.754 48.4431 129.287C48.5739 130.929 49.6356 132.252 51.4358 133.022C53.8631 134.053 57.5932 134.021 62.1647 132.541C62.1225 132.629 62.0864 132.719 62.0442 132.808C60.5324 136.009 53.9198 145.478 29.459 143.526V145.619C31.6402 145.792 33.738 145.875 35.7524 145.875C41.6266 145.875 46.7686 145.158 51.1371 143.72C59.0309 141.119 62.452 136.835 63.9381 133.702C64.2625 133.006 64.5241 132.305 64.7228 131.6C68.7299 129.942 73.2499 127.253 78.0201 123.319C82.9376 119.264 85.1034 115.456 84.4649 111.987H84.4659ZM49.925 114.263C43.3021 117.066 39.4309 117.448 38.6833 117.041C38.7255 116.8 39.0499 115.848 41.4082 113.693C47.2413 108.357 56.3646 105.721 64.661 105.505C60.9258 108.675 55.5953 111.856 49.925 114.262V114.263ZM62.935 130.061C58.2431 131.845 54.4862 132.043 52.2525 131.097C51.5151 130.778 50.615 130.181 50.5316 129.12C50.4008 127.456 52.1639 125.316 55.2452 123.397C56.3801 122.685 57.4789 122.335 58.4882 122.335C59.4974 122.335 60.3872 122.675 61.1616 123.365C62.5952 124.642 63.4633 127.158 62.935 130.061Z" fill="white"/>
</g>
</svg>
