<svg width="55" height="11" viewBox="0 0 54.7217 10.0623" fill="none" xmlns="http://www.w3.org/2000/svg">
  <g>
    <path d="M4.27866 4.02914C2.96876 3.84241 2.15886 3.57678 2.15886 2.83513C2.15886 2.09348 2.94271 1.56486 4.15365 1.56486C5.08855 1.57801 5.91928 1.95146 6.32033 2.5432L6.39845 2.65629L7.7396 1.74632L7.66929 1.63323C6.98699 0.533908 5.82293 2.43187e-05 4.1172 2.43187e-05C2.88542 2.43187e-05 1.76302 0.39189 1.11459 1.05201C0.651043 1.52278 0.419271 2.11452 0.424479 2.81146C0.424479 4.86809 2.19792 5.39672 4.11199 5.66234C5.6797 5.87274 6.34897 6.28828 6.34897 7.0536C6.34897 8.35543 4.66928 8.458 4.15626 8.458C3.44532 8.458 2.14323 8.26864 1.40365 6.99574L1.33073 6.8695L0 7.76632L0.0598949 7.87678C0.86198 9.36797 2.15886 10.0623 4.14324 10.0623C6.12762 10.0623 8.08596 9.27066 8.09898 7.05097C8.09898 4.8602 6.16928 4.29213 4.28126 4.02914H4.27866Z" fill="#DA002F"/>
    <path d="M12.3177 2.88245C10.2995 2.88245 8.83594 4.3789 8.83594 6.43816C8.83594 8.49743 10.2682 9.98073 12.3177 9.98073C14.3672 9.98073 15.8255 8.52373 15.8255 6.43816C15.8255 4.3526 14.349 2.88245 12.3177 2.88245ZM14.1823 6.43816C14.1823 7.6085 13.4167 8.42642 12.3177 8.42642C11.2188 8.42642 10.4661 7.6085 10.4661 6.43816C10.4661 5.43615 11.1016 4.42098 12.3177 4.42098C13.3802 4.42098 14.1823 5.28887 14.1823 6.43816Z" fill="#DA002F"/>
    <path d="M18.6693 0.276147H17.0391V9.84923H18.6693V0.276147Z" fill="#DA002F"/>
    <path d="M21.922 2.99026H20.2917V9.84921H21.922V2.99026Z" fill="#DA002F"/>
    <path d="M21.112 0.249878C20.6251 0.249878 20.1329 0.586514 20.1329 1.2256C20.1329 1.52804 20.2396 1.78315 20.4428 1.96462C20.6198 2.12504 20.8594 2.21183 21.112 2.21183C21.599 2.21183 22.0912 1.87257 22.0912 1.2256C22.0912 0.578624 21.599 0.249878 21.112 0.249878Z" fill="#DA002F"/>
    <path d="M28.6641 3.75296C28.1355 3.17174 27.2422 2.86929 26.5235 2.86929C24.4402 2.86929 23.0938 4.2658 23.0938 6.42501C23.0938 8.58421 24.4818 9.98072 26.5495 9.98072C27.4428 9.98072 28.1902 9.65461 28.6928 9.0576L28.7527 9.84659H30.2943V0.273511H28.6641V3.75033V3.75296ZM28.573 6.42501C28.573 7.58482 27.7605 8.42904 26.6433 8.42904C25.5261 8.42904 24.7266 7.60586 24.7266 6.42501C24.7266 5.24415 25.4974 4.43675 26.6433 4.43675C27.7891 4.43675 28.573 5.29149 28.573 6.42501Z" fill="#DA002F"/>
    <path d="M37.0547 3.77666C36.5782 3.21647 35.7995 2.87195 34.9636 2.87195C32.8724 2.87195 31.4688 4.30002 31.4688 6.42766C31.4688 7.52173 31.8073 8.43959 32.4454 9.07867C33.0626 9.69671 33.9115 10.0228 34.9063 10.0228C35.6329 10.0307 36.5261 9.73353 37.0652 9.06815L37.1146 9.85188H38.6719V3.01923H37.086L37.0574 3.77929L37.0547 3.77666ZM37.0365 6.43292C37.0365 6.96944 36.862 7.4665 36.5443 7.83733C36.1876 8.25023 35.6797 8.46852 35.0704 8.46852C33.9115 8.46852 33.1016 7.62956 33.1016 6.42504C33.1016 5.22051 33.9115 4.39733 35.0704 4.39733C36.4219 4.39733 37.0365 5.45195 37.0365 6.43292Z" fill="#DA002F"/>
    <path d="M43.6407 2.86931C43.1069 2.86931 42.3699 2.95609 41.8282 3.62937L41.7631 3.01395H40.2397V9.84661H41.8699V6.15677C41.8699 4.93383 42.7397 4.49989 43.4845 4.49989C43.9194 4.49989 44.2163 4.60245 44.5444 4.86808L44.6746 4.97328L45.4194 3.53206L45.3387 3.46105C44.9324 3.09548 44.2814 2.86667 43.6407 2.86667V2.86931Z" fill="#DA002F"/>
    <path d="M46.8517 0.249878C46.3647 0.249878 45.8725 0.586514 45.8725 1.2256C45.8725 1.52804 45.9793 1.78315 46.1824 1.96462C46.3595 2.12504 46.5991 2.21183 46.8517 2.21183C47.3387 2.21183 47.8308 1.87257 47.8308 1.2256C47.8308 0.578624 47.3387 0.249878 46.8517 0.249878Z" fill="#DA002F"/>
    <path d="M47.6616 2.99026H46.0314V9.84921H47.6616V2.99026Z" fill="#DA002F"/>
    <path d="M51.8439 5.63603C50.7163 5.5282 50.5653 5.20208 50.56 4.93645C50.56 4.79707 50.6069 4.68398 50.7059 4.58667C50.9064 4.38679 51.297 4.28422 51.8048 4.29211C52.508 4.29211 52.9923 4.46306 53.4246 4.86807L53.5288 4.96538L54.4715 3.84765L54.3726 3.75823C53.6616 3.11915 52.8856 2.84563 51.7788 2.84563C50.3673 2.84563 48.9429 3.50575 48.9429 4.98116C48.9533 6.19884 49.8856 6.9063 51.7137 7.08514C52.7007 7.17982 53.1017 7.40073 53.0913 7.84783C53.0783 8.41327 52.3022 8.56318 51.8491 8.56318C50.9897 8.5474 50.1746 8.20287 49.6694 7.63743L49.5574 7.51119L48.6798 8.70783L48.7527 8.79199C49.7449 9.91761 50.9767 10.0491 51.8179 10.0491C53.5392 10.0491 54.7059 9.16018 54.7215 7.83731C54.7371 5.89376 52.784 5.72019 51.8465 5.63603H51.8439Z" fill="#DA002F"/>
  </g>
</svg>
