<svg width="32" height="32" viewBox="0 0 32 32" fill="none" xmlns="http://www.w3.org/2000/svg">
<g clip-path="url(#clip0_693_12303)">
<path d="M15.7238 31.7323C24.7921 28.7137 32.6631 10.9279 29.6919 3.83162C26.5095 -3.77168 6.81893 1.46474 2.26346 6.4273C-2.39809 11.506 6.68416 34.7406 15.7238 31.7323Z" fill="#DA002F"/>
<path d="M15.6228 15.6348C15.6228 16.5996 15.4373 17.4062 15.0662 18.0547C14.699 18.6992 14.1658 19.1855 13.4666 19.5137C12.7673 19.8379 11.9255 20 10.9412 20H8.51539V11.4336H11.2048C12.1033 11.4336 12.8826 11.5938 13.5427 11.9141C14.2029 12.2305 14.7146 12.7012 15.0779 13.3262C15.4412 13.9473 15.6228 14.7168 15.6228 15.6348ZM13.7361 15.6816C13.7361 15.0488 13.6423 14.5293 13.4548 14.123C13.2712 13.7129 12.9978 13.4102 12.6345 13.2148C12.2752 13.0195 11.8298 12.9219 11.2986 12.9219H10.3318V18.5H11.1111C11.9978 18.5 12.656 18.2637 13.0857 17.791C13.5193 17.3184 13.7361 16.6152 13.7361 15.6816ZM16.9182 11.4336H19.5842C20.7248 11.4336 21.5881 11.5938 22.1741 11.9141C22.76 12.2344 23.053 12.7969 23.053 13.6016C23.053 13.9258 23.0002 14.2188 22.8948 14.4805C22.7932 14.7422 22.6448 14.957 22.4495 15.125C22.2541 15.293 22.0159 15.4023 21.7346 15.4531V15.5117C22.0198 15.5703 22.2776 15.6719 22.508 15.8164C22.7385 15.957 22.9221 16.1641 23.0588 16.4375C23.1995 16.707 23.2698 17.0664 23.2698 17.5156C23.2698 18.0352 23.1428 18.4805 22.8889 18.8516C22.635 19.2227 22.2717 19.5078 21.7991 19.707C21.3303 19.9023 20.7717 20 20.1233 20H16.9182V11.4336ZM18.7346 14.8262H19.7893C20.3166 14.8262 20.6819 14.7441 20.885 14.5801C21.0881 14.4121 21.1897 14.166 21.1897 13.8418C21.1897 13.5137 21.0686 13.2793 20.8264 13.1387C20.5881 12.9941 20.2092 12.9219 19.6897 12.9219H18.7346V14.8262ZM18.7346 16.2676V18.5H19.9182C20.4651 18.5 20.8459 18.3945 21.0608 18.1836C21.2756 17.9727 21.383 17.6895 21.383 17.334C21.383 17.123 21.3362 16.9375 21.2424 16.7773C21.1487 16.6172 20.9905 16.4922 20.7678 16.4023C20.5491 16.3125 20.2463 16.2676 19.8596 16.2676H18.7346Z" fill="white"/>
</g>
<defs>
<clipPath id="clip0_693_12303">
<rect width="32" height="32" rx="8" fill="white"/>
</clipPath>
</defs>
</svg>
