<svg width="78" height="32" viewBox="0 0 78 32" fill="none" xmlns="http://www.w3.org/2000/svg">
<g id="solidarislogo">
<g id="Logomark">
<g id="Clip path group">
<mask id="mask0_703_167515" style="mask-type:luminance" maskUnits="userSpaceOnUse" x="0" y="0" width="19" height="22">
<g id="clippath">
<path id="Vector" d="M14.9411 1.13803C10.5974 -3.42496 0.487959 6.84243 0.0113957 12.3575C-0.467772 17.8751 14.3083 24.8551 17.1234 20.1054C19.7224 15.7212 18.2797 4.64641 14.9411 1.14066V1.13803ZM14.2328 17.3912C12.3369 20.6103 2.38901 15.8869 2.71192 12.1497C3.03484 8.41515 9.84475 1.46152 12.7692 4.5491C15.0166 6.92133 15.9828 14.4194 14.2328 17.3912Z" fill="white"/>
</g>
</mask>
<g mask="url(#mask0_703_167515)">
<g id="Group">
<path id="Vector_2" fill-rule="evenodd" clip-rule="evenodd" d="M14.9411 1.13803C10.5974 -3.42496 0.487959 6.84243 0.0113957 12.3575C-0.467772 17.8751 14.3083 24.8551 17.1234 20.1054C19.7224 15.7212 18.2797 4.64641 14.9411 1.14066V1.13803ZM14.2328 17.3912C12.3369 20.6103 2.38901 15.8869 2.71192 12.1497C3.03484 8.41515 9.84475 1.46152 12.7692 4.5491C15.0166 6.92133 15.9828 14.4194 14.2328 17.3912Z" fill="#DA002F"/>
<path id="Vector_3" fill-rule="evenodd" clip-rule="evenodd" d="M16.6491 -0.41085C12.3028 -4.97647 2.19075 5.29355 1.71159 10.8112C1.23242 16.3289 16.0137 23.3141 18.8314 18.5617C21.433 14.175 19.9877 3.0949 16.6491 -0.41348V-0.41085Z" fill="url(#paint0_linear_703_167515)"/>
<path id="Vector_4" fill-rule="evenodd" clip-rule="evenodd" d="M15.7507 3.71316C11.4043 -0.852464 1.28971 9.41756 0.81315 14.9379C0.333982 20.4555 15.1153 27.4407 17.933 22.6884C20.5345 18.3016 19.0892 7.22417 15.7507 3.71579V3.71316Z" fill="url(#paint1_linear_703_167515)"/>
<path id="Vector_5" fill-rule="evenodd" clip-rule="evenodd" d="M11.5974 0.422646C7.251 -4.14298 -2.861 6.12705 -3.34017 11.6447C-3.81934 17.1624 10.9619 24.1476 13.7797 19.3952C16.3812 15.0084 14.9359 3.93102 11.5974 0.422646Z" fill="url(#paint2_linear_703_167515)"/>
<path id="Vector_6" d="M7.38569 15.8379L6.85254 21.9922L13.6158 22.5898L14.1489 16.4355L7.38569 15.8379Z" fill="url(#paint3_linear_703_167515)"/>
</g>
</g>
</g>
<g id="Clip path group_2">
<mask id="mask1_703_167515" style="mask-type:luminance" maskUnits="userSpaceOnUse" x="7" y="13" width="17" height="19">
<g id="clippath-1">
<path id="Vector_7" d="M23.1653 20.5738C23.1653 19.1799 21.0194 17.1259 18.358 15.6005C18.2955 16.2554 18.2017 16.8839 18.0767 17.4704C20.0767 18.3304 21.8606 19.7769 21.8684 20.9078C21.884 23.1669 18.2851 28.9397 15.7929 27.793C13.4647 26.7226 11.3528 20.5527 12.8736 17.7439C13.1991 17.1417 13.8007 16.8392 14.5455 16.7577C14.8423 16.0213 15.0194 15.1139 15.0976 14.1198C12.5038 13.2598 10.0168 13.2388 8.91525 14.9903C5.96993 19.6638 10.1965 29.8523 14.2512 31.0857C18.1496 32.2745 23.1705 23.6929 23.1679 20.5711L23.1653 20.5738Z" fill="white"/>
</g>
</mask>
<g mask="url(#mask1_703_167515)">
<g id="Group_2">
<path id="Vector_8" fill-rule="evenodd" clip-rule="evenodd" d="M8.91222 14.9902C5.96951 19.6636 10.1935 29.8521 14.2482 31.0856C18.1466 32.2743 23.1675 23.6927 23.1649 20.5709C23.1649 17.3466 11.6805 10.5928 8.91222 14.9902ZM15.7924 27.7902C13.4643 26.7198 11.3523 20.5499 12.8732 17.7411C14.3888 14.9428 21.8524 18.5932 21.868 20.9049C21.8836 23.1641 18.2846 28.9369 15.7924 27.7902Z" fill="#DA002F"/>
<path id="Vector_9" fill-rule="evenodd" clip-rule="evenodd" d="M6.93302 16.4449C3.62833 21.5418 8.47209 31.9959 12.9851 32.9795C17.2664 33.9131 22.6544 24.7319 22.6414 21.5234C22.6258 18.207 10.0164 11.6925 6.93302 16.4449Z" fill="url(#paint4_linear_703_167515)"/>
<path id="Vector_10" fill-rule="evenodd" clip-rule="evenodd" d="M7.191 12.0237C3.92537 16.7656 8.6884 27.9403 13.1389 29.4972C17.3629 30.9753 22.6884 22.3595 22.678 19.1141C22.6676 15.7583 10.2353 7.60276 7.191 12.0237Z" fill="url(#paint5_linear_703_167515)"/>
<path id="Vector_11" fill-rule="evenodd" clip-rule="evenodd" d="M12.5059 15.8374C10.2142 19.9533 13.3444 28.9162 16.5423 30.126C19.7142 31.3252 24.0085 23.5169 24.0267 20.6265C24.0476 17.6494 14.6986 11.9003 12.5033 15.84L12.5059 15.8374Z" fill="url(#paint6_linear_703_167515)"/>
</g>
</g>
</g>
</g>
<g id="Lettermark">
<path id="Vector_12" d="M27.4466 14.597C26.1367 14.4103 25.3268 14.1446 25.3268 13.403C25.3268 12.6613 26.1107 12.1327 27.3216 12.1327C28.2565 12.1459 29.0873 12.5193 29.4883 13.111L29.5664 13.2241L30.9076 12.3142L30.8373 12.2011C30.155 11.1018 28.9909 10.5679 27.2852 10.5679C26.0534 10.5679 24.931 10.9597 24.2826 11.6199C23.819 12.0906 23.5872 12.6824 23.5924 13.3793C23.5924 15.4359 25.3659 15.9646 27.28 16.2302C28.8477 16.4406 29.5169 16.8561 29.5169 17.6214C29.5169 18.9233 27.8372 19.0258 27.3242 19.0258C26.6133 19.0258 25.3112 18.8365 24.5716 17.5636L24.4987 17.4373L23.168 18.3342L23.2279 18.4446C24.0299 19.9358 25.3268 20.6301 27.3112 20.6301C29.2956 20.6301 31.2539 19.8385 31.2669 17.6188C31.2669 15.4281 29.3373 14.86 27.4492 14.597H27.4466Z" fill="#DA002F"/>
<path id="Vector_13" d="M35.4857 13.4502C33.4674 13.4502 32.0039 14.9466 32.0039 17.0059C32.0039 19.0652 33.4362 20.5485 35.4857 20.5485C37.5352 20.5485 38.9935 19.0915 38.9935 17.0059C38.9935 14.9203 37.5169 13.4502 35.4857 13.4502ZM37.3503 17.0059C37.3503 18.1762 36.5846 18.9942 35.4857 18.9942C34.3867 18.9942 33.6341 18.1762 33.6341 17.0059C33.6341 16.0039 34.2695 14.9887 35.4857 14.9887C36.5482 14.9887 37.3503 15.8566 37.3503 17.0059Z" fill="#DA002F"/>
<path id="Vector_14" d="M41.8372 10.8442H40.207V20.4173H41.8372V10.8442Z" fill="#DA002F"/>
<path id="Vector_15" d="M45.0902 13.5581H43.46V20.4171H45.0902V13.5581Z" fill="#DA002F"/>
<path id="Vector_16" d="M44.28 10.8179C43.793 10.8179 43.3008 11.1545 43.3008 11.7936C43.3008 12.096 43.4076 12.3511 43.6107 12.5326C43.7878 12.693 44.0273 12.7798 44.28 12.7798C44.7669 12.7798 45.2591 12.4406 45.2591 11.7936C45.2591 11.1466 44.7669 10.8179 44.28 10.8179Z" fill="#DA002F"/>
<path id="Vector_17" d="M51.832 14.3208C51.3034 13.7395 50.4102 13.4371 49.6914 13.4371C47.6081 13.4371 46.2617 14.8336 46.2617 16.9928C46.2617 19.152 47.6497 20.5485 49.7175 20.5485C50.6107 20.5485 51.3581 20.2224 51.8607 19.6254L51.9206 20.4144H53.4623V10.8413H51.832V14.3181V14.3208ZM51.7409 16.9928C51.7409 18.1526 50.9284 18.9968 49.8112 18.9968C48.694 18.9968 47.8945 18.1737 47.8945 16.9928C47.8945 15.8119 48.6654 15.0045 49.8112 15.0045C50.957 15.0045 51.7409 15.8593 51.7409 16.9928Z" fill="#DA002F"/>
<path id="Vector_18" d="M60.2227 14.3447C59.7461 13.7845 58.9675 13.4399 58.1315 13.4399C56.0404 13.4399 54.6367 14.868 54.6367 16.9957C54.6367 18.0897 54.9753 19.0076 55.6133 19.6467C56.2305 20.2647 57.0794 20.5908 58.0742 20.5908C58.8008 20.5987 59.694 20.3015 60.2331 19.6361L60.2826 20.4199H61.8399V13.5872H60.2539L60.2253 14.3473L60.2227 14.3447ZM60.2044 17.0009C60.2044 17.5374 60.03 18.0345 59.7122 18.4053C59.3555 18.8182 58.8477 19.0365 58.2383 19.0365C57.0794 19.0365 56.2695 18.1976 56.2695 16.993C56.2695 15.7885 57.0794 14.9653 58.2383 14.9653C59.5899 14.9653 60.2044 16.0199 60.2044 17.0009Z" fill="#DA002F"/>
<path id="Vector_19" d="M66.8083 13.4372C66.2744 13.4372 65.5374 13.524 64.9958 14.1973L64.9307 13.5818H63.4072V20.4145H65.0374V16.7247C65.0374 15.5017 65.9072 15.0678 66.652 15.0678C67.0869 15.0678 67.3838 15.1703 67.7119 15.436L67.8421 15.5412L68.5869 14.1L68.5062 14.0289C68.0999 13.6634 67.4489 13.4346 66.8083 13.4346V13.4372Z" fill="#DA002F"/>
<path id="Vector_20" d="M70.0192 10.8179C69.5322 10.8179 69.04 11.1545 69.04 11.7936C69.04 12.096 69.1468 12.3511 69.3499 12.5326C69.527 12.693 69.7666 12.7798 70.0192 12.7798C70.5062 12.7798 70.9984 12.4406 70.9984 11.7936C70.9984 11.1466 70.5062 10.8179 70.0192 10.8179Z" fill="#DA002F"/>
<path id="Vector_21" d="M70.8294 13.5581H69.1992V20.4171H70.8294V13.5581Z" fill="#DA002F"/>
<path id="Vector_22" d="M75.0117 16.204C73.8841 16.0961 73.7331 15.77 73.7279 15.5044C73.7279 15.365 73.7747 15.2519 73.8737 15.1546C74.0742 14.9547 74.4648 14.8522 74.9727 14.8601C75.6758 14.8601 76.1602 15.031 76.5925 15.436L76.6966 15.5333L77.6393 14.4156L77.5404 14.3262C76.8294 13.6871 76.0534 13.4136 74.9466 13.4136C73.5352 13.4136 72.1107 14.0737 72.1107 15.5491C72.1211 16.7668 73.0534 17.4742 74.8815 17.6531C75.8685 17.7478 76.2695 17.9687 76.2591 18.4158C76.2461 18.9812 75.4701 19.1311 75.0169 19.1311C74.1576 19.1153 73.3424 18.7708 72.8372 18.2054L72.7253 18.0791L71.8477 19.2758L71.9206 19.3599C72.9128 20.4856 74.1445 20.6171 74.9857 20.6171C76.707 20.6171 77.8737 19.7281 77.8893 18.4053C77.905 16.4617 75.9518 16.2881 75.0143 16.204H75.0117Z" fill="#DA002F"/>
</g>
</g>
<defs>
<linearGradient id="paint0_linear_703_167515" x1="13.0827" y1="9.60135" x2="1.75591" y2="11.705" gradientUnits="userSpaceOnUse">
<stop offset="0.25" stop-color="#AB1830" stop-opacity="0"/>
<stop offset="1" stop-color="#AB1830"/>
</linearGradient>
<linearGradient id="paint1_linear_703_167515" x1="11.9861" y1="10.9144" x2="14.6552" y2="3.02018" gradientUnits="userSpaceOnUse">
<stop stop-color="#AB1830" stop-opacity="0"/>
<stop offset="1" stop-color="#AB1830"/>
</linearGradient>
<linearGradient id="paint2_linear_703_167515" x1="6.91544" y1="11.06" x2="12.7544" y2="20.2288" gradientUnits="userSpaceOnUse">
<stop stop-color="#AB1830" stop-opacity="0"/>
<stop offset="1" stop-color="#AB1830"/>
</linearGradient>
<linearGradient id="paint3_linear_703_167515" x1="7.119" y1="18.9164" x2="13.8832" y2="19.5023" gradientUnits="userSpaceOnUse">
<stop stop-color="#AB1830" stop-opacity="0"/>
<stop offset="0.24" stop-color="#AB1830"/>
<stop offset="0.78" stop-color="#AB1830"/>
<stop offset="1" stop-color="#AB1830" stop-opacity="0"/>
</linearGradient>
<linearGradient id="paint4_linear_703_167515" x1="5.84144" y1="25.2956" x2="22.5531" y2="21.5693" gradientUnits="userSpaceOnUse">
<stop offset="0.65" stop-color="#AB1830" stop-opacity="0"/>
<stop offset="1" stop-color="#AB1830"/>
</linearGradient>
<linearGradient id="paint5_linear_703_167515" x1="9.62932" y1="22.6267" x2="9.11347" y2="29.869" gradientUnits="userSpaceOnUse">
<stop stop-color="#AB1830" stop-opacity="0"/>
<stop offset="1" stop-color="#AB1830"/>
</linearGradient>
<linearGradient id="paint6_linear_703_167515" x1="12.4265" y1="20.8773" x2="7.40853" y2="16.6739" gradientUnits="userSpaceOnUse">
<stop stop-color="#AB1830" stop-opacity="0"/>
<stop offset="1" stop-color="#AB1830"/>
</linearGradient>
</defs>
</svg>
