<svg width="24" height="32" viewBox="0 0 24 32" fill="none" xmlns="http://www.w3.org/2000/svg">
<g id="Logomark">
<g id="Clip path group">
<mask id="mask0_703_167515" style="mask-type:luminance" maskUnits="userSpaceOnUse" x="0" y="0" width="19" height="22">
<g id="clippath">
<path id="Vector" d="M14.9411 1.13803C10.5974 -3.42496 0.487959 6.84243 0.0113957 12.3575C-0.467772 17.8751 14.3083 24.8551 17.1234 20.1054C19.7224 15.7212 18.2797 4.64641 14.9411 1.14066V1.13803ZM14.2328 17.3912C12.3369 20.6103 2.38901 15.8869 2.71192 12.1497C3.03484 8.41515 9.84475 1.46152 12.7692 4.5491C15.0166 6.92133 15.9828 14.4194 14.2328 17.3912Z" fill="white"/>
</g>
</mask>
<g mask="url(#mask0_703_167515)">
<g id="Group">
<path id="Vector_2" fill-rule="evenodd" clip-rule="evenodd" d="M14.9411 1.13803C10.5974 -3.42496 0.487959 6.84243 0.0113957 12.3575C-0.467772 17.8751 14.3083 24.8551 17.1234 20.1054C19.7224 15.7212 18.2797 4.64641 14.9411 1.14066V1.13803ZM14.2328 17.3912C12.3369 20.6103 2.38901 15.8869 2.71192 12.1497C3.03484 8.41515 9.84475 1.46152 12.7692 4.5491C15.0166 6.92133 15.9828 14.4194 14.2328 17.3912Z" fill="#DA002F"/>
<path id="Vector_3" fill-rule="evenodd" clip-rule="evenodd" d="M16.6491 -0.41085C12.3028 -4.97647 2.19075 5.29355 1.71159 10.8112C1.23242 16.3289 16.0137 23.3141 18.8314 18.5617C21.433 14.175 19.9877 3.0949 16.6491 -0.41348V-0.41085Z" fill="url(#paint0_linear_703_167515)"/>
<path id="Vector_4" fill-rule="evenodd" clip-rule="evenodd" d="M15.7507 3.71316C11.4043 -0.852464 1.28971 9.41756 0.81315 14.9379C0.333982 20.4555 15.1153 27.4407 17.933 22.6884C20.5345 18.3016 19.0892 7.22417 15.7507 3.71579V3.71316Z" fill="url(#paint1_linear_703_167515)"/>
<path id="Vector_5" fill-rule="evenodd" clip-rule="evenodd" d="M11.5974 0.422646C7.251 -4.14298 -2.861 6.12705 -3.34017 11.6447C-3.81934 17.1624 10.9619 24.1476 13.7797 19.3952C16.3812 15.0084 14.9359 3.93102 11.5974 0.422646Z" fill="url(#paint2_linear_703_167515)"/>
<path id="Vector_6" d="M7.38569 15.8379L6.85254 21.9922L13.6158 22.5898L14.1489 16.4355L7.38569 15.8379Z" fill="url(#paint3_linear_703_167515)"/>
</g>
</g>
</g>
<g id="Clip path group_2">
<mask id="mask1_703_167515" style="mask-type:luminance" maskUnits="userSpaceOnUse" x="7" y="13" width="17" height="19">
<g id="clippath-1">
<path id="Vector_7" d="M23.1653 20.5738C23.1653 19.1799 21.0194 17.1259 18.358 15.6005C18.2955 16.2554 18.2017 16.8839 18.0767 17.4704C20.0767 18.3304 21.8606 19.7769 21.8684 20.9078C21.884 23.1669 18.2851 28.9397 15.7929 27.793C13.4647 26.7226 11.3528 20.5527 12.8736 17.7439C13.1991 17.1417 13.8007 16.8392 14.5455 16.7577C14.8423 16.0213 15.0194 15.1139 15.0976 14.1198C12.5038 13.2598 10.0168 13.2388 8.91525 14.9903C5.96993 19.6638 10.1965 29.8523 14.2512 31.0857C18.1496 32.2745 23.1705 23.6929 23.1679 20.5711L23.1653 20.5738Z" fill="white"/>
</g>
</mask>
<g mask="url(#mask1_703_167515)">
<g id="Group_2">
<path id="Vector_8" fill-rule="evenodd" clip-rule="evenodd" d="M8.91222 14.9902C5.96951 19.6636 10.1935 29.8521 14.2482 31.0856C18.1466 32.2743 23.1675 23.6927 23.1649 20.5709C23.1649 17.3466 11.6805 10.5928 8.91222 14.9902ZM15.7924 27.7902C13.4643 26.7198 11.3523 20.5499 12.8732 17.7411C14.3888 14.9428 21.8524 18.5932 21.868 20.9049C21.8836 23.1641 18.2846 28.9369 15.7924 27.7902Z" fill="#DA002F"/>
<path id="Vector_9" fill-rule="evenodd" clip-rule="evenodd" d="M6.93302 16.4449C3.62833 21.5418 8.47209 31.9959 12.9851 32.9795C17.2664 33.9131 22.6544 24.7319 22.6414 21.5234C22.6258 18.207 10.0164 11.6925 6.93302 16.4449Z" fill="url(#paint4_linear_703_167515)"/>
<path id="Vector_10" fill-rule="evenodd" clip-rule="evenodd" d="M7.191 12.0237C3.92537 16.7656 8.6884 27.9403 13.1389 29.4972C17.3629 30.9753 22.6884 22.3595 22.678 19.1141C22.6676 15.7583 10.2353 7.60276 7.191 12.0237Z" fill="url(#paint5_linear_703_167515)"/>
<path id="Vector_11" fill-rule="evenodd" clip-rule="evenodd" d="M12.5059 15.8374C10.2142 19.9533 13.3444 28.9162 16.5423 30.126C19.7142 31.3252 24.0085 23.5169 24.0267 20.6265C24.0476 17.6494 14.6986 11.9003 12.5033 15.84L12.5059 15.8374Z" fill="url(#paint6_linear_703_167515)"/>
</g>
</g>
</g>
</g>
<defs>
<linearGradient id="paint0_linear_703_167515" x1="13.0827" y1="9.60135" x2="1.75591" y2="11.705" gradientUnits="userSpaceOnUse">
<stop offset="0.25" stop-color="#AB1830" stop-opacity="0"/>
<stop offset="1" stop-color="#AB1830"/>
</linearGradient>
<linearGradient id="paint1_linear_703_167515" x1="11.9861" y1="10.9144" x2="14.6552" y2="3.02018" gradientUnits="userSpaceOnUse">
<stop stop-color="#AB1830" stop-opacity="0"/>
<stop offset="1" stop-color="#AB1830"/>
</linearGradient>
<linearGradient id="paint2_linear_703_167515" x1="6.91544" y1="11.06" x2="12.7544" y2="20.2288" gradientUnits="userSpaceOnUse">
<stop stop-color="#AB1830" stop-opacity="0"/>
<stop offset="1" stop-color="#AB1830"/>
</linearGradient>
<linearGradient id="paint3_linear_703_167515" x1="7.119" y1="18.9164" x2="13.8832" y2="19.5023" gradientUnits="userSpaceOnUse">
<stop stop-color="#AB1830" stop-opacity="0"/>
<stop offset="0.24" stop-color="#AB1830"/>
<stop offset="0.78" stop-color="#AB1830"/>
<stop offset="1" stop-color="#AB1830" stop-opacity="0"/>
</linearGradient>
<linearGradient id="paint4_linear_703_167515" x1="5.84144" y1="25.2956" x2="22.5531" y2="21.5693" gradientUnits="userSpaceOnUse">
<stop offset="0.65" stop-color="#AB1830" stop-opacity="0"/>
<stop offset="1" stop-color="#AB1830"/>
</linearGradient>
<linearGradient id="paint5_linear_703_167515" x1="9.62932" y1="22.6267" x2="9.11347" y2="29.869" gradientUnits="userSpaceOnUse">
<stop stop-color="#AB1830" stop-opacity="0"/>
<stop offset="1" stop-color="#AB1830"/>
</linearGradient>
<linearGradient id="paint6_linear_703_167515" x1="12.4265" y1="20.8773" x2="7.40853" y2="16.6739" gradientUnits="userSpaceOnUse">
<stop stop-color="#AB1830" stop-opacity="0"/>
<stop offset="1" stop-color="#AB1830"/>
</linearGradient>
</defs>
</svg>
